# xmcd CD database file
#
# Track frame offsets:
#	187
#	21795
#	47837
#	67520
#	86855
#	104700
#	124950
#	139762
#	158987
#	176420
#	193860
#	216035
#	242455
#
# Disc length: 3518 seconds
#
# Revision: 0
# Processed by: cddbd v1.5.1PL0 Copyright (c) Steve Scherf et al.
# Submitted via: CDex 1.51
#
DISCID=b50dbc0d
DTITLE=伊藤銀次 - BEST SELECTION
DYEAR=1986
DGENRE=JPop
TTITLE0=フラワーズ イン ザ レイン
TTITLE1=SKYLIGHTにポプラの枯葉
TTITLE2=DEAR YESTERDAY
TTITLE3=センチメンタルにやってくれ
TTITLE4=あの娘にビッグ ウエンズデー
TTITLE5=真冬のコパトーン
TTITLE6=泣き止まないで、LOVE AGAIN
TTITLE7=白い恋人たち
TTITLE8=雪は空から降ってくる
TTITLE9=フェアウエル ブルー クリスマス
TTITLE10=ディズニー ガール
TTITLE11=BEAUTIFUL NIGHT
TTITLE12=HANG ON TO YOUR DREAM
EXTD=YEAR: 1986
EXTT0=
EXTT1=
EXTT2=
EXTT3=
EXTT4=
EXTT5=
EXTT6=
EXTT7=
EXTT8=
EXTT9=
EXTT10=
EXTT11=
EXTT12=
PLAYORDER=
